<svg width="68" height="68" viewBox="0 0 68 68" xmlns="http://www.w3.org/2000/svg">
  <!-- Background circle (puppy face) -->
  <circle cx="34" cy="34" r="33" fill="#d4c5a0" stroke="#b8aa85" stroke-width="1"/>

  <!-- Ears -->
  <ellipse cx="15" cy="20" rx="10" ry="14" fill="#c2b38a"/>
  <ellipse cx="53" cy="20" rx="10" ry="14" fill="#c2b38a"/>

  <!-- Face highlight -->
  <circle cx="34" cy="34" r="30" fill="#e3d7b8" opacity="0.7"/>

  <!-- Eyes -->
  <circle cx="25" cy="28" r="4" fill="#2c2416"/>
  <circle cx="43" cy="28" r="4" fill="#2c2416"/>

  <!-- Eye highlights -->
  <circle cx="26" cy="27" r="1.5" fill="white"/>
  <circle cx="44" cy="27" r="1.5" fill="white"/>

  <!-- Nose -->
  <ellipse cx="34" cy="38" rx="5" ry="4" fill="#1a1410"/>

  <!-- Mouth/smile -->
  <path d="M 34 39 Q 30 43 27 42" stroke="#1a1410" stroke-width="1.5" fill="none" stroke-linecap="round"/>
  <path d="M 34 39 Q 38 43 41 42" stroke="#1a1410" stroke-width="1.5" fill="none" stroke-linecap="round"/>

  <!-- Fur texture details -->
  <g opacity="0.2">
    <path d="M 20 30 Q 22 32 24 30" stroke="#b8aa85" stroke-width="0.5" fill="none"/>
    <path d="M 44 30 Q 46 32 48 30" stroke="#b8aa85" stroke-width="0.5" fill="none"/>
    <path d="M 28 45 Q 30 47 32 45" stroke="#b8aa85" stroke-width="0.5" fill="none"/>
    <path d="M 36 45 Q 38 47 40 45" stroke="#b8aa85" stroke-width="0.5" fill="none"/>
  </g>
</svg>
